# Blender v2.79 (sub 0) OBJ File: ''
# www.blender.org
o Sphere
v 0.000000 -0.000000 -1.000000
v -0.000000 1.000000 -0.000000
v 0.270598 0.923880 -0.270598
v 0.500000 0.707107 -0.500000
v 0.653281 0.382683 -0.653282
v 0.707107 -0.000000 -0.707107
v 0.653281 -0.382684 -0.653282
v 0.500000 -0.707107 -0.500000
v 0.270598 -0.923880 -0.270598
v 0.382683 0.923880 -0.000000
v 0.707107 0.707107 -0.000000
v 0.923879 0.382683 -0.000000
v 1.000000 -0.000000 -0.000000
v 0.923879 -0.382684 -0.000000
v 0.707107 -0.707107 -0.000000
v 0.382683 -0.923880 -0.000000
v 0.000000 -1.000000 -0.000000
v 0.270598 0.923880 0.270598
v 0.500000 0.707107 0.500000
v 0.653281 0.382683 0.653281
v 0.707107 -0.000000 0.707106
v 0.653281 -0.382684 0.653281
v 0.500000 -0.707107 0.500000
v 0.270598 -0.923880 0.270598
v 0.000000 0.923880 0.382683
v 0.000000 0.707107 0.707106
v 0.000000 0.382683 0.923879
v 0.000000 -0.000000 1.000000
v 0.000000 -0.382684 0.923879
v 0.000000 -0.707107 0.707106
v 0.000000 -0.923880 0.382683
v -0.270598 0.923880 0.270598
v -0.500000 0.707107 0.500000
v -0.653281 0.382683 0.653281
v -0.707107 -0.000000 0.707106
v -0.653281 -0.382684 0.653281
v -0.500000 -0.707107 0.500000
v -0.270598 -0.923880 0.270598
v -0.382683 0.923880 -0.000000
v -0.707107 0.707107 -0.000000
v -0.923879 0.382683 -0.000000
v -1.000000 -0.000000 -0.000000
v -0.923879 -0.382684 -0.000000
v -0.707107 -0.707107 -0.000000
v -0.382683 -0.923880 -0.000000
v -0.270598 0.923880 -0.270598
v -0.500000 0.707107 -0.500000
v -0.653281 0.382683 -0.653281
v -0.707107 -0.000000 -0.707107
v -0.653281 -0.382684 -0.653281
v -0.500000 -0.707107 -0.500000
v -0.270598 -0.923880 -0.270598
v -0.000000 0.923880 -0.382683
v -0.000000 0.707107 -0.707107
v -0.000000 0.382683 -0.923879
v -0.000000 -0.382684 -0.923879
v -0.000000 -0.707107 -0.707107
v -0.000000 -0.923880 -0.382683
vn 0.2243 -0.8103 -0.5414
vn 0.3764 -0.1807 -0.9087
vn 0.3256 0.5253 -0.7862
vn 0.0805 0.9776 -0.1945
vn 0.0805 -0.9776 -0.1945
vn 0.3256 -0.5253 -0.7862
vn 0.3764 0.1807 -0.9087
vn 0.2243 0.8103 -0.5414
vn 0.7862 0.5253 -0.3256
vn 0.1945 0.9776 -0.0805
vn 0.1945 -0.9776 -0.0805
vn 0.7862 -0.5253 -0.3256
vn 0.9087 0.1807 -0.3764
vn 0.5414 0.8103 -0.2243
vn 0.5414 -0.8103 -0.2243
vn 0.9087 -0.1807 -0.3764
vn 0.1945 -0.9776 0.0805
vn 0.7862 -0.5253 0.3256
vn 0.9087 0.1807 0.3764
vn 0.5414 0.8103 0.2243
vn 0.5414 -0.8103 0.2243
vn 0.9087 -0.1807 0.3764
vn 0.7862 0.5253 0.3256
vn 0.1945 0.9776 0.0805
vn 0.2243 0.8103 0.5414
vn 0.2243 -0.8103 0.5414
vn 0.3764 -0.1807 0.9087
vn 0.3256 0.5253 0.7862
vn 0.0805 0.9776 0.1945
vn 0.0805 -0.9776 0.1945
vn 0.3256 -0.5253 0.7862
vn 0.3764 0.1807 0.9087
vn -0.2243 -0.8103 0.5414
vn -0.3764 -0.1807 0.9087
vn -0.3256 0.5253 0.7862
vn -0.0805 0.9776 0.1945
vn -0.0805 -0.9776 0.1945
vn -0.3256 -0.5253 0.7862
vn -0.3764 0.1807 0.9087
vn -0.2243 0.8103 0.5414
vn -0.1945 0.9776 0.0805
vn -0.1945 -0.9776 0.0805
vn -0.7862 -0.5253 0.3256
vn -0.9087 0.1807 0.3764
vn -0.5414 0.8103 0.2243
vn -0.5414 -0.8103 0.2243
vn -0.9087 -0.1807 0.3764
vn -0.7862 0.5253 0.3256
vn -0.7862 -0.5253 -0.3256
vn -0.9087 0.1807 -0.3764
vn -0.5414 0.8103 -0.2243
vn -0.5414 -0.8103 -0.2243
vn -0.9087 -0.1807 -0.3764
vn -0.7862 0.5253 -0.3256
vn -0.1945 0.9776 -0.0805
vn -0.1945 -0.9776 -0.0805
vn -0.2243 -0.8103 -0.5414
vn -0.3764 -0.1807 -0.9087
vn -0.3256 0.5253 -0.7862
vn -0.0805 0.9776 -0.1945
vn -0.0805 -0.9776 -0.1945
vn -0.3256 -0.5253 -0.7862
vn -0.3764 0.1807 -0.9087
vn -0.2243 0.8103 -0.5414
s off
f 57//1 9//1 58//1
f 56//2 6//2 7//2
f 55//3 4//3 5//3
f 53//4 2//4 3//4
f 17//5 58//5 9//5
f 56//6 8//6 57//6
f 55//7 6//7 1//7
f 54//8 3//8 4//8
f 4//9 12//9 5//9
f 3//10 2//10 10//10
f 17//11 9//11 16//11
f 7//12 15//12 8//12
f 5//13 13//13 6//13
f 3//14 11//14 4//14
f 9//15 15//15 16//15
f 6//16 14//16 7//16
f 17//17 16//17 24//17
f 14//18 23//18 15//18
f 12//19 21//19 13//19
f 10//20 19//20 11//20
f 15//21 24//21 16//21
f 13//22 22//22 14//22
f 11//23 20//23 12//23
f 10//24 2//24 18//24
f 18//25 26//25 19//25
f 23//26 31//26 24//26
f 21//27 29//27 22//27
f 19//28 27//28 20//28
f 18//29 2//29 25//29
f 17//30 24//30 31//30
f 23//31 29//31 30//31
f 20//32 28//32 21//32
f 30//33 38//33 31//33
f 28//34 36//34 29//34
f 26//35 34//35 27//35
f 25//36 2//36 32//36
f 17//37 31//37 38//37
f 30//38 36//38 37//38
f 28//39 34//39 35//39
f 26//40 32//40 33//40
f 32//41 2//41 39//41
f 17//42 38//42 45//42
f 36//43 44//43 37//43
f 35//44 41//44 42//44
f 32//45 40//45 33//45
f 37//46 45//46 38//46
f 35//47 43//47 36//47
f 33//48 41//48 34//48
f 44//49 50//49 51//49
f 42//50 48//50 49//50
f 39//51 47//51 40//51
f 45//52 51//52 52//52
f 42//53 50//53 43//53
f 40//54 48//54 41//54
f 39//55 2//55 46//55
f 17//56 45//56 52//56
f 51//57 58//57 52//57
f 49//58 56//58 50//58
f 47//59 55//59 48//59
f 46//60 2//60 53//60
f 17//61 52//61 58//61
f 50//62 57//62 51//62
f 48//63 1//63 49//63
f 46//64 54//64 47//64
f 57//1 8//1 9//1
f 56//2 1//2 6//2
f 55//3 54//3 4//3
f 56//6 7//6 8//6
f 55//7 5//7 6//7
f 54//8 53//8 3//8
f 4//9 11//9 12//9
f 7//12 14//12 15//12
f 5//13 12//13 13//13
f 3//14 10//14 11//14
f 9//15 8//15 15//15
f 6//16 13//16 14//16
f 14//18 22//18 23//18
f 12//19 20//19 21//19
f 10//20 18//20 19//20
f 15//21 23//21 24//21
f 13//22 21//22 22//22
f 11//23 19//23 20//23
f 18//25 25//25 26//25
f 23//26 30//26 31//26
f 21//27 28//27 29//27
f 19//28 26//28 27//28
f 23//31 22//31 29//31
f 20//32 27//32 28//32
f 30//33 37//33 38//33
f 28//34 35//34 36//34
f 26//35 33//35 34//35
f 30//38 29//38 36//38
f 28//39 27//39 34//39
f 26//40 25//40 32//40
f 36//43 43//43 44//43
f 35//44 34//44 41//44
f 32//45 39//45 40//45
f 37//46 44//46 45//46
f 35//47 42//47 43//47
f 33//48 40//48 41//48
f 44//49 43//49 50//49
f 42//50 41//50 48//50
f 39//51 46//51 47//51
f 45//52 44//52 51//52
f 42//53 49//53 50//53
f 40//54 47//54 48//54
f 51//57 57//57 58//57
f 49//58 1//58 56//58
f 47//59 54//59 55//59
f 50//62 56//62 57//62
f 48//63 55//63 1//63
f 46//64 53//64 54//64
